<svg width="512" height="512" viewBox="0 0 512 512" xmlns="http://www.w3.org/2000/svg">
  <rect width="512" height="512" rx="100" fill="#007AFF"/>
  <path
    d="M176 144c-8.837 0-16 7.163-16 16v192c0 8.837 7.163 16 16 16h104c17.673 0 32-14.327 32-32 0-63.225-51.775-115-115-115h-5v-61c0-8.837-7.163-16-16-16zm16 107h5c46.869 0 85 38.131 85 85 0 1.105-.895 2-2 2h-88v-87zM329.4 144.6c-6.248 6.248-6.248 16.379 0 22.627 38.091 38.091 38.091 99.859 0 137.95-6.248 6.248-6.248 16.379 0 22.627s16.379 6.248 22.627 0c50.422-50.422 50.422-132.783 0-183.204-6.248-6.248-16.379-6.248-22.627 0zM369.4 104.6c-6.248 6.248-6.248 16.379 0 22.627 59.628 59.628 59.628 156.145 0 215.773-6.248 6.248-6.248 16.379 0 22.627s16.379 6.248 22.627 0c72.042-72.042 72.042-188.985 0-261.027-6.248-6.248-16.379-6.248-22.627 0z"
    fill="#fff"/>
</svg>
